<?xml version="1.0" encoding="UTF-8" standalone="no"?>
<svg xmlns="http://www.w3.org/2000/svg" width="600" height="300" viewBox="0 0 600 300">
  <rect width="100%" height="100%" fill="none"/>
  
  <!-- Заголовок -->
  <text x="300" y="30" font-family="Arial" font-size="16" font-weight="bold" text-anchor="middle" fill="white">Волатильность валютных пар в 2025 году</text>
  
  <!-- Оси -->
  <line x1="50" y1="250" x2="550" y2="250" stroke="white" stroke-width="2"/>
  <line x1="50" y1="250" x2="50" y2="50" stroke="white" stroke-width="2"/>
  
  <!-- Подписи осей -->
  <text x="300" y="280" font-family="Arial" font-size="12" text-anchor="middle" fill="white">Валютные пары</text>
  <text x="20" y="150" font-family="Arial" font-size="12" transform="rotate(-90, 20, 150)" text-anchor="middle" fill="white">Волатильность (%)</text>
  
  <!-- Столбцы графика -->
  <rect x="70" y="80" width="40" height="170" fill="#64B5F6" opacity="0.8"/>
  <text x="90" y="260" font-family="Arial" font-size="10" text-anchor="middle" fill="white">USD/RUB</text>
  <text x="90" y="75" font-family="Arial" font-size="10" text-anchor="middle" fill="white">12.5%</text>
  
  <rect x="130" y="110" width="40" height="140" fill="#64B5F6" opacity="0.8"/>
  <text x="150" y="260" font-family="Arial" font-size="10" text-anchor="middle" fill="white">EUR/RUB</text>
  <text x="150" y="105" font-family="Arial" font-size="10" text-anchor="middle" fill="white">10.2%</text>
  
  <rect x="190" y="130" width="40" height="120" fill="#64B5F6" opacity="0.8"/>
  <text x="210" y="260" font-family="Arial" font-size="10" text-anchor="middle" fill="white">CNY/RUB</text>
  <text x="210" y="125" font-family="Arial" font-size="10" text-anchor="middle" fill="white">8.7%</text>
  
  <rect x="250" y="150" width="40" height="100" fill="#64B5F6" opacity="0.8"/>
  <text x="270" y="260" font-family="Arial" font-size="10" text-anchor="middle" fill="white">EUR/USD</text>
  <text x="270" y="145" font-family="Arial" font-size="10" text-anchor="middle" fill="white">7.3%</text>
  
  <rect x="310" y="170" width="40" height="80" fill="#64B5F6" opacity="0.8"/>
  <text x="330" y="260" font-family="Arial" font-size="10" text-anchor="middle" fill="white">GBP/USD</text>
  <text x="330" y="165" font-family="Arial" font-size="10" text-anchor="middle" fill="white">5.8%</text>
  
  <rect x="370" y="190" width="40" height="60" fill="#64B5F6" opacity="0.8"/>
  <text x="390" y="260" font-family="Arial" font-size="10" text-anchor="middle" fill="white">AUD/USD</text>
  <text x="390" y="185" font-family="Arial" font-size="10" text-anchor="middle" fill="white">4.5%</text>
  
  <rect x="430" y="200" width="40" height="50" fill="#64B5F6" opacity="0.8"/>
  <text x="450" y="260" font-family="Arial" font-size="10" text-anchor="middle" fill="white">USD/JPY</text>
  <text x="450" y="195" font-family="Arial" font-size="10" text-anchor="middle" fill="white">3.7%</text>
  
  <rect x="490" y="210" width="40" height="40" fill="#64B5F6" opacity="0.8"/>
  <text x="510" y="260" font-family="Arial" font-size="10" text-anchor="middle" fill="white">USD/CHF</text>
  <text x="510" y="205" font-family="Arial" font-size="10" text-anchor="middle" fill="white">2.9%</text>
</svg>
